<svg id="Layer_1" enable-background="new 0 0 512 512" height="512" viewBox="0 0 512 512" width="512" xmlns="http://www.w3.org/2000/svg"><g><path d="m16.172 216.719h479.656c-23.193-111.191-121.751-194.723-239.828-194.723-118.076 0-216.634 83.532-239.828 194.723z" fill="#47354f"/><path d="m156.887 491.107c30.305 13.423 63.835 20.893 99.113 20.893 35.279 0 68.808-7.47 99.114-20.893-.002 0-93.008-8.56-198.227 0z" fill="#47354f"/><g><g><path d="m133.48 197.075c-4.67 0-8.457-3.786-8.457-8.457v-18.279c0-6.437-5.236-11.673-11.673-11.673s-11.673 5.237-11.673 11.673v18.279c0 4.671-3.787 8.457-8.457 8.457s-8.457-3.786-8.457-8.457v-18.279c0-15.763 12.824-28.588 28.587-28.588s28.587 12.824 28.587 28.588v18.279c0 4.67-3.787 8.457-8.457 8.457z" fill="#deeeff"/></g><g><path d="m418.781 197.075c-4.67 0-8.457-3.786-8.457-8.457v-18.279c0-6.437-5.236-11.673-11.673-11.673s-11.673 5.237-11.673 11.673v18.279c0 4.671-3.787 8.457-8.457 8.457s-8.457-3.786-8.457-8.457v-18.279c0-15.763 12.824-28.588 28.587-28.588s28.587 12.824 28.587 28.588v18.279c0 4.67-3.787 8.457-8.457 8.457z" fill="#deeeff"/></g></g><path d="m491.531 334.296c-2.487-21.191-6.573-59.673-6.573-83.796 0-26.409-35.875-33.168-62.069-38.104-10.106-1.904-18.835-3.549-23.572-5.887-4.72-2.33-7.251-5.004-7.523-7.949-.458-4.956 5.476-9.491 5.604-9.589l.255-.189.572-1.014h-207.508c-1.792 1.732-4.676 5.208-4.764 9.706-.076 3.917 1.96 7.645 6.055 11.09v15.819c-.988 1.853-5.017 10.189-2.538 18.815 1.603 5.575 5.571 10.063 11.798 13.339 3.793 1.996 5.371 4.711 5.117 8.804-.25 4.032-2.171 8.893-4.396 14.521-5.01 12.677-11.217 28.384-1.985 44.921-4.752 3.945-10.471 13.103-3.617 24.833 7.057 12.08 10.684 23.255 11.088 34.165.645 17.399-7.225 33.101-23.389 46.669l-.206.173-.133.234c-.175.308-4.262 7.619-1.678 14.806 1.484 4.129 4.826 7.308 9.938 9.46v15.237c-1.527 1.462-5.724 6.017-5.219 11.515.319 3.475 2.427 6.572 6.262 9.233h162.062c12.855-5.694 25.123-12.468 36.701-20.194l22.332-16.806.01-.003c25.129-21.26 45.912-47.493 60.844-77.175v-.005z" fill="#ff4155"/><path d="m398.651 207.854c17.515 8.646 84.806 7.646 84.806 42.646 0 25.457 4.473 66.368 6.913 86.788l1.539-3.968c5.919-21.094 9.093-43.336 9.093-66.322 0-17.234-1.789-34.05-5.174-50.279-13.852-17.609-35.331-28.95-59.421-28.95h-39.907c0-.001-15.364 11.44 2.151 20.085z" fill="#ff7186"/><path d="m193 187.768h-117.406c-24.091 0-45.569 11.341-59.421 28.95-3.385 16.229-5.174 33.045-5.174 50.279 0 22.986 3.174 45.228 9.093 66.322l16.908 43.605v.005c14.932 29.683 35.716 55.917 60.846 77.177l.008.001 22.33 16.805c11.579 7.727 23.847 14.502 36.703 20.195h38.978c-15.635-8.893-2.356-20.086-2.356-20.086v-16.914c-17.492-6.643-8.457-22.509-8.457-22.509 38.301-32.152 21.282-67.931 12.631-82.739-8.652-14.808 4.284-23.683 4.284-23.683-18.534-30.824 20.034-59.426 0-69.966s-8.457-30.44-8.457-30.44v-16.914c-13.327-10.647-.51-20.088-.51-20.088z" fill="#e80054"/><g><g><path d="m296.187 333.295c-7.502 0-7.976-.082-8.659-.198-4.568-.783-7.907-4.743-7.907-9.378v-67.107c0-5.255 4.26-9.514 9.514-9.514s9.514 4.26 9.514 9.514v57.645c4.43-.008 9.705-.029 13.952-.053h.054c5.23 0 9.484 4.225 9.513 9.461.029 5.255-4.207 9.538-9.462 9.567-7.669.044-12.908.063-16.519.063z" fill="#deeeff"/></g></g><g><g><path d="m344.645 331.238c-5.255 0-9.514-4.26-9.514-9.514v-64.05c0-5.255 4.26-9.514 9.514-9.514s9.514 4.26 9.514 9.514v64.05c0 5.254-4.259 9.514-9.514 9.514z" fill="#deeeff"/></g><g><path d="m344.776 332.297c-2.511 0-4.92-.992-6.703-2.762-1.791-1.778-2.802-4.195-2.811-6.718 0 0-.085-23.632-.085-32.694 0-7.431-.046-32.499-.046-32.499-.005-2.526.995-4.951 2.78-6.739s4.208-2.793 6.734-2.793h18.459c21.434 0 35.835 16.92 35.835 42.103 0 23.957-14.773 41.602-35.129 41.958-5.267.092-18.439.143-18.998.145-.012-.001-.024-.001-.036-.001zm9.4-65.177c.013 7.92.03 18.58.03 23.002 0 5.274.029 15.493.053 23.095 3.474-.023 7.073-.054 9.219-.092 8.18-.143 16.432-7.289 16.432-22.932 0-5.413-1.212-23.074-16.806-23.074h-8.928z" fill="#deeeff"/></g></g><g><g><path d="m145.981 333.29c-11.82 0-22.92-4.768-30.455-13.081-3.529-3.894-3.232-9.911.661-13.439 3.893-3.529 9.911-3.233 13.439.66 3.877 4.277 9.99 6.831 16.355 6.831 5.826 0 10.054-3.485 10.631-6.714.763-4.277-6.001-7.126-8.092-7.897-10.452-3.855-19.733-7.986-20.123-8.161-.458-.204-.899-.445-1.319-.719-7.451-4.858-11.29-13.375-10.019-22.228 1.35-9.407 8.21-17.065 17.904-19.985 18.923-5.699 34.476 7.127 35.13 7.676 4.022 3.381 4.542 9.383 1.161 13.405-3.365 4.003-9.326 4.538-13.349 1.208-.268-.213-8.593-6.739-17.454-4.07-3.694 1.113-4.418 3.496-4.557 4.469-.113.788-.093 2.188 1.131 3.251 2.504 1.094 10.02 4.327 18.079 7.3 17.594 6.489 21.991 19.284 20.24 29.095-2.317 12.979-14.666 22.399-29.363 22.399z" fill="#deeeff"/></g></g><g><g><path d="m262.571 431.777c-.017 0-.034 0-.051 0-6.388-.009-12.273-1.704-17.49-5.038-9.906-6.329-14.928-14.883-14.928-25.424v-46.215c0-5.255 4.26-9.514 9.514-9.514 5.255 0 9.514 4.26 9.514 9.514v46.216c0 3.373 1.028 6.12 6.145 9.389 2.146 1.372 4.525 2.04 7.271 2.044h.026c2.526 0 4.743-.498 6.775-1.522 6.542-3.294 7.424-6.883 7.424-9.96v-46.167c0-5.255 4.26-9.514 9.514-9.514s9.514 4.26 9.514 9.514v46.167c0 8.186-3.104 19.507-17.893 26.955-4.683 2.359-9.843 3.555-15.335 3.555z" fill="#deeeff"/></g></g><g><g><path d="m350.846 364.614h-37.091c-5.255 0-9.514-4.26-9.514-9.514 0-5.255 4.26-9.514 9.514-9.514h37.091c5.255 0 9.514 4.26 9.514 9.514.001 5.254-4.259 9.514-9.514 9.514z" fill="#deeeff"/></g><g><path d="m332.225 431.777c-5.255 0-9.514-4.26-9.514-9.514v-65.018c0-5.255 4.26-9.514 9.514-9.514s9.514 4.26 9.514 9.514v65.018c.001 5.254-4.259 9.514-9.514 9.514z" fill="#deeeff"/></g></g><g><path d="m227.09 333.29c-23.763 0-43.095-19.333-43.095-43.096s19.332-43.096 43.095-43.096 43.095 19.333 43.095 43.096c.001 23.763-19.331 43.096-43.095 43.096zm0-67.163c-13.27 0-24.067 10.797-24.067 24.067s10.797 24.067 24.067 24.067 24.067-10.797 24.067-24.067-10.796-24.067-24.067-24.067z" fill="#deeeff"/></g><g><path d="m181.223 431.777c-23.763 0-43.095-19.333-43.095-43.096s19.332-43.096 43.095-43.096 43.096 19.333 43.096 43.096c.001 23.763-19.333 43.096-43.096 43.096zm0-67.163c-13.27 0-24.067 10.797-24.067 24.067s10.797 24.067 24.067 24.067c13.271 0 24.068-10.797 24.068-24.067s-10.797-24.067-24.068-24.067z" fill="#deeeff"/></g><g><path d="m120.915 167.123c-1.683 0-3.381-.501-4.861-1.543-3.819-2.689-4.736-7.965-2.046-11.784l85.666-121.68c13.078-18.576 33.608-29.231 56.326-29.231s43.248 10.654 56.326 29.231l18.722 26.592c2.689 3.819 1.773 9.095-2.046 11.784-3.82 2.689-9.095 1.772-11.784-2.047l-18.722-26.593c-9.867-14.014-25.355-22.052-42.496-22.052s-32.629 8.038-42.497 22.053l-85.666 121.68c-1.647 2.339-4.264 3.589-6.922 3.59z" fill="#bec8f7"/></g><path d="m201.966 462.564c0-4.671-3.787-8.457-8.457-8.457h-95.655c7.153 6.052 14.654 11.703 22.476 16.914h73.179c4.67 0 8.457-3.786 8.457-8.457z" fill="#ffc839"/><path d="m193.508 207.854h-117.914c-30.607 0-55.508 24.901-55.508 55.508v69.945c4.26 15.189 9.953 29.776 16.914 43.617v-113.562c0-21.28 17.313-38.593 38.593-38.593h117.915c4.67 0 8.457-3.786 8.457-8.457s-3.786-8.458-8.457-8.458z" fill="#ffc839"/><g><path d="m398.651 224.769h-205.143c-4.67 0-8.457-3.786-8.457-8.457s3.787-8.457 8.457-8.457h205.143c4.67 0 8.457 3.786 8.457 8.457.001 4.67-3.786 8.457-8.457 8.457z" fill="#ffdd40"/></g><g fill="#ffdd40"><path d="m491.914 333.307v-2.327c0-4.671-3.787-8.457-8.457-8.457-4.671 0-8.457 3.786-8.457 8.457v45.944c6.961-13.841 12.654-28.428 16.914-43.617z"/><path d="m414.146 454.107h-220.638c-4.67 0-8.457 3.786-8.457 8.457s3.787 8.457 8.457 8.457h198.163c7.821-5.211 15.323-10.862 22.475-16.914z"/></g><g><path d="m483.457 339.438c-4.67 0-8.457-3.786-8.457-8.457v-67.618c0-21.28-17.313-38.593-38.593-38.593h-37.755c-4.67 0-8.457-3.786-8.457-8.457s3.787-8.457 8.457-8.457h37.755c30.607 0 55.508 24.901 55.508 55.508v67.618c-.001 4.669-3.788 8.456-8.458 8.456z" fill="#ffea89"/></g><circle cx="256" cy="34.977" fill="#ff4155" r="34.977"/><circle cx="261.286" cy="27.531" fill="#ff7186" r="17.488"/><g><path d="m391.085 167.123c-2.658 0-5.275-1.25-6.922-3.589l-66.944-95.087c-2.689-3.819-1.773-9.095 2.046-11.784 3.82-2.688 9.094-1.773 11.784 2.047l66.944 95.087c2.689 3.819 1.773 9.095-2.046 11.784-1.481 1.041-3.179 1.542-4.862 1.542z" fill="#d3dcfb"/></g><ellipse cx="256" cy="132.206" fill="#56415e" rx="66.582" ry="37.206"/></g></svg>